<svg width="47" height="43" viewBox="0 0 47 43" fill="none" xmlns="http://www.w3.org/2000/svg">
<path d="M44.7549 15.9342L16.13 0.798598C15.6858 0.561104 15.1991 0.413567 14.6977 0.364438C14.1964 0.315309 13.6903 0.365551 13.2084 0.512288C12.7265 0.659025 12.2783 0.899378 11.8895 1.21958C11.5006 1.53978 11.1787 1.93353 10.9422 2.37831L0.8041 21.5519C0.566572 21.997 0.419044 22.4845 0.369937 22.9866C0.32083 23.4888 0.371108 23.9957 0.517897 24.4784C0.664686 24.9611 0.905107 25.4101 1.22545 25.7999C1.54578 26.1897 1.93976 26.5125 2.38488 26.7501L31.0098 41.8857C31.0359 41.9029 31.0635 41.9175 31.0923 41.9293C31.9849 42.3839 33.0205 42.469 33.9753 42.1662C34.9301 41.8634 35.7274 41.1971 36.1948 40.3112L46.3303 21.1428C46.5692 20.6974 46.718 20.2093 46.7682 19.7064C46.8183 19.2035 46.7688 18.6956 46.6225 18.2119C46.4762 17.7281 46.2359 17.2779 45.9155 16.8871C45.595 16.4963 45.2006 16.1725 44.7549 15.9342ZM44.2422 16.9039C44.6144 17.1022 44.935 17.3848 45.1787 17.729L23.8831 20.7405L14.4113 1.43415C15.2759 1.45903 12.8966 0.329665 44.2422 16.9039ZM31.5239 40.9135L2.89894 25.7779C2.2576 25.4344 1.77883 24.8503 1.56785 24.1541C1.35687 23.4578 1.43092 22.7063 1.77374 22.0646L11.9105 2.89359C12.2122 2.3279 12.7037 1.88672 13.2986 1.64764L23.0808 21.59C23.1328 21.6932 23.2156 21.7775 23.3177 21.8315C23.4198 21.8855 23.5362 21.9064 23.6507 21.8914L45.644 18.7835C45.7728 19.4088 45.6786 20.0595 45.3778 20.6226L35.2396 39.7962C35.0703 40.1148 34.8395 40.3966 34.5606 40.6255C34.2817 40.8544 33.9602 41.0257 33.6147 41.1296C33.2692 41.2335 32.9066 41.2679 32.5477 41.2308C32.1888 41.1937 31.8408 41.0859 31.5239 40.9135Z" fill="#3B29AB"/>
</svg>
