<svg width="30" height="26" viewBox="0 0 30 26" fill="none" xmlns="http://www.w3.org/2000/svg">
<path d="M27.6487 2.32654C26.9042 1.58643 26.0209 1.00002 25.0494 0.600831C24.0778 0.20164 23.0369 -0.00252326 21.9863 2.35364e-05C20.9357 0.00257033 19.8959 0.211775 18.9262 0.615672C17.9566 1.01957 17.0762 1.61025 16.3353 2.35397L14.9933 3.70167L13.6433 2.3618C12.8992 1.62171 12.0163 1.0352 11.0451 0.635743C10.074 0.236291 9.03351 0.0317238 7.98315 0.0337247C5.86184 0.0377657 3.82904 0.882951 2.33191 2.38335C0.834782 3.88375 -0.00403301 5.91644 1.45805e-05 8.03428C0.00406217 10.1521 0.850614 12.1816 2.35346 13.6763C15.6446 26.9144 14.6283 25.9859 15.0403 25.9859C15.4524 25.9859 14.4752 26.8674 27.6762 13.6214C29.1695 12.1183 30.0051 10.0855 30 7.96835C29.9948 5.85122 29.1493 3.82244 27.6487 2.32654ZM3.37373 3.42351C4.59636 2.20293 6.25353 1.5156 7.98255 1.51193C9.71157 1.50826 11.3717 2.18854 12.5995 3.40392L14.4753 5.26487C14.543 5.33477 14.624 5.39036 14.7137 5.42832C14.8034 5.46629 14.8998 5.48586 14.9972 5.48586C15.0945 5.48586 15.191 5.46629 15.2806 5.42832C15.3703 5.39036 15.4514 5.33477 15.519 5.26487L17.3831 3.39217C17.9873 2.7861 18.7051 2.30479 19.4957 1.97571C20.2862 1.64662 21.1339 1.47621 21.9904 1.47421C22.8469 1.47221 23.6955 1.63865 24.4875 1.96403C25.2796 2.28942 25.9997 2.76738 26.6068 3.37062C27.2139 3.97386 27.696 4.69056 28.0256 5.47981C28.3552 6.26906 28.5259 7.11542 28.5279 7.97053C28.5299 8.82564 28.3632 9.67274 28.0373 10.4635C27.7114 11.2543 27.2326 11.9733 26.6284 12.5793L15.0403 24.2073L3.39732 12.6342C2.78886 12.03 2.30558 11.312 1.97509 10.5213C1.64461 9.73063 1.47335 8.88267 1.47116 8.02589C1.46897 7.16911 1.63589 6.32029 1.96234 5.52792C2.28879 4.73554 2.76836 4.01513 3.37373 3.40784V3.42351Z" fill="#3B29AB"/>
</svg>
