<svg>
  <symbol id="icon-envelope" width="47" height="43" viewBox="0 0 47 43" fill="none" xmlns="http://www.w3.org/2000/svg">
    <path d="M44.7549 15.9342L16.13 0.798598C15.6858 0.561104 15.1991 0.413567 14.6977 0.364438C14.1964 0.315309 13.6903 0.365551 13.2084 0.512288C12.7265 0.659025 12.2783 0.899378 11.8895 1.21958C11.5006 1.53978 11.1787 1.93353 10.9422 2.37831L0.8041 21.5519C0.566572 21.997 0.419044 22.4845 0.369937 22.9866C0.32083 23.4888 0.371108 23.9957 0.517897 24.4784C0.664686 24.9611 0.905107 25.4101 1.22545 25.7999C1.54578 26.1897 1.93976 26.5125 2.38488 26.7501L31.0098 41.8857C31.0359 41.9029 31.0635 41.9175 31.0923 41.9293C31.9849 42.3839 33.0205 42.469 33.9753 42.1662C34.9301 41.8634 35.7274 41.1971 36.1948 40.3112L46.3303 21.1428C46.5692 20.6974 46.718 20.2093 46.7682 19.7064C46.8183 19.2035 46.7688 18.6956 46.6225 18.2119C46.4762 17.7281 46.2359 17.2779 45.9155 16.8871C45.595 16.4963 45.2006 16.1725 44.7549 15.9342ZM44.2422 16.9039C44.6144 17.1022 44.935 17.3848 45.1787 17.729L23.8831 20.7405L14.4113 1.43415C15.2759 1.45903 12.8966 0.329665 44.2422 16.9039ZM31.5239 40.9135L2.89894 25.7779C2.2576 25.4344 1.77883 24.8503 1.56785 24.1541C1.35687 23.4578 1.43092 22.7063 1.77374 22.0646L11.9105 2.89359C12.2122 2.3279 12.7037 1.88672 13.2986 1.64764L23.0808 21.59C23.1328 21.6932 23.2156 21.7775 23.3177 21.8315C23.4198 21.8855 23.5362 21.9064 23.6507 21.8914L45.644 18.7835C45.7728 19.4088 45.6786 20.0595 45.3778 20.6226L35.2396 39.7962C35.0703 40.1148 34.8395 40.3966 34.5606 40.6255C34.2817 40.8544 33.9602 41.0257 33.6147 41.1296C33.2692 41.2335 32.9066 41.2679 32.5477 41.2308C32.1888 41.1937 31.8408 41.0859 31.5239 40.9135Z" fill="#3B29AB"/>
  </symbol>

  <symbol id="icon-hart" width="30" height="26" viewBox="0 0 30 26" fill="none" xmlns="http://www.w3.org/2000/svg">
  <path d="M27.6487 2.32654C26.9042 1.58643 26.0209 1.00002 25.0494 0.600831C24.0778 0.20164 23.0369 -0.00252326 21.9863 2.35364e-05C20.9357 0.00257033 19.8959 0.211775 18.9262 0.615672C17.9566 1.01957 17.0762 1.61025 16.3353 2.35397L14.9933 3.70167L13.6433 2.3618C12.8992 1.62171 12.0163 1.0352 11.0451 0.635743C10.074 0.236291 9.03351 0.0317238 7.98315 0.0337247C5.86184 0.0377657 3.82904 0.882951 2.33191 2.38335C0.834782 3.88375 -0.00403301 5.91644 1.45805e-05 8.03428C0.00406217 10.1521 0.850614 12.1816 2.35346 13.6763C15.6446 26.9144 14.6283 25.9859 15.0403 25.9859C15.4524 25.9859 14.4752 26.8674 27.6762 13.6214C29.1695 12.1183 30.0051 10.0855 30 7.96835C29.9948 5.85122 29.1493 3.82244 27.6487 2.32654ZM3.37373 3.42351C4.59636 2.20293 6.25353 1.5156 7.98255 1.51193C9.71157 1.50826 11.3717 2.18854 12.5995 3.40392L14.4753 5.26487C14.543 5.33477 14.624 5.39036 14.7137 5.42832C14.8034 5.46629 14.8998 5.48586 14.9972 5.48586C15.0945 5.48586 15.191 5.46629 15.2806 5.42832C15.3703 5.39036 15.4514 5.33477 15.519 5.26487L17.3831 3.39217C17.9873 2.7861 18.7051 2.30479 19.4957 1.97571C20.2862 1.64662 21.1339 1.47621 21.9904 1.47421C22.8469 1.47221 23.6955 1.63865 24.4875 1.96403C25.2796 2.28942 25.9997 2.76738 26.6068 3.37062C27.2139 3.97386 27.696 4.69056 28.0256 5.47981C28.3552 6.26906 28.5259 7.11542 28.5279 7.97053C28.5299 8.82564 28.3632 9.67274 28.0373 10.4635C27.7114 11.2543 27.2326 11.9733 26.6284 12.5793L15.0403 24.2073L3.39732 12.6342C2.78886 12.03 2.30558 11.312 1.97509 10.5213C1.64461 9.73063 1.47335 8.88267 1.47116 8.02589C1.46897 7.16911 1.63589 6.32029 1.96234 5.52792C2.28879 4.73554 2.76836 4.01513 3.37373 3.40784V3.42351Z" fill="#3B29AB"/>
  </symbol>

  <symbol id="icon-information" width="46" height="42" viewBox="0 0 46 42" fill="none" xmlns="http://www.w3.org/2000/svg">
  <path d="M41.1812 35.9757L27.5329 4.4466C27.29 3.88558 26.9037 3.39839 26.4128 3.03398C25.9219 2.66957 25.3437 2.44079 24.7364 2.37064C24.129 2.30049 23.5139 2.39143 22.9529 2.63433C22.3918 2.87722 21.9046 3.2635 21.5401 3.75437L1.06323 31.3417C0.697859 31.8333 0.468731 32.4127 0.398995 33.0213C0.329259 33.6298 0.421389 34.246 0.666074 34.8076C0.910759 35.3692 1.29933 35.8562 1.79253 36.2195C2.28572 36.5828 2.86607 36.8095 3.47493 36.8766L37.5886 40.8171C38.1956 40.8873 38.8104 40.7964 39.3711 40.5536C39.9319 40.3108 40.4188 39.9246 40.783 39.4339C41.1471 38.9432 41.3756 38.3652 41.4456 37.7582C41.5155 37.1511 41.4243 36.5364 41.1812 35.9757ZM37.7163 39.7366L3.59979 35.7957C3.18321 35.7481 2.78658 35.5914 2.44993 35.3414C2.11328 35.0915 1.84852 34.7571 1.6824 34.3721C1.51627 33.9872 1.45464 33.5652 1.50374 33.1488C1.55285 32.7324 1.71094 32.3363 1.96206 32.0005L22.4361 4.41287C22.6855 4.07702 23.0188 3.81273 23.4027 3.64654C23.7866 3.48036 24.2075 3.41814 24.623 3.46614C25.0386 3.51414 25.4342 3.67067 25.7701 3.92C26.106 4.16933 26.3703 4.50266 26.5366 4.88652L40.1878 36.416C40.3561 36.8011 40.4197 37.2238 40.3719 37.6414C40.3242 38.059 40.1669 38.4565 39.9159 38.7937C39.665 39.1308 39.3294 39.3956 38.9431 39.5612C38.5568 39.7268 38.1335 39.7873 37.7163 39.7366Z" fill="#3B29AB"/>
  <path d="M21.85 25.1173L23.041 14.8067C23.0577 14.6623 23.1311 14.5303 23.2451 14.44C23.359 14.3496 23.5042 14.3082 23.6487 14.3249C23.7932 14.3416 23.9251 14.415 24.0155 14.529C24.1059 14.6429 24.1473 14.7881 24.1306 14.9326L22.9396 25.2432C22.9229 25.3877 22.8495 25.5196 22.7355 25.61C22.6216 25.7004 22.4764 25.7418 22.3319 25.7251C22.1874 25.7084 22.0554 25.635 21.9651 25.521C21.8747 25.407 21.8333 25.2618 21.85 25.1173Z" fill="#3B29AB"/>
  <path d="M22.6924 30.7404C22.6638 30.9886 22.5377 31.2153 22.3418 31.3706C22.146 31.5258 21.8966 31.5969 21.6483 31.5683C21.4001 31.5396 21.1734 31.4135 21.0181 31.2177C20.8629 31.0218 20.7918 30.7724 20.8204 30.5241C20.8491 30.2759 20.9752 30.0492 21.171 29.894C21.3668 29.7387 21.6163 29.6676 21.8646 29.6963C22.1128 29.7249 22.3395 29.851 22.4947 30.0469C22.65 30.2427 22.7211 30.4921 22.6924 30.7404Z" fill="#3B29AB"/>
  </symbol>

  <symbol id="icon-plus" width="30" height="30" viewBox="0 0 30 30" fill="none" xmlns="http://www.w3.org/2000/svg">
  <path d="M29.0787 17.1603L15.5539 14.5031L18.2151 0.958128C18.2347 0.886557 18.2393 0.811706 18.2287 0.738258C18.2181 0.66481 18.1925 0.594339 18.1534 0.531253C18.1143 0.468166 18.0626 0.413812 18.0016 0.371598C17.9405 0.329384 17.8715 0.300219 17.7987 0.285912C17.7258 0.271605 17.6508 0.272466 17.5784 0.288449C17.5059 0.304433 17.4375 0.335194 17.3775 0.378805C17.3174 0.422416 17.267 0.477946 17.2294 0.541918C17.1918 0.605889 17.1678 0.676932 17.1588 0.750606L14.501 14.2783L0.953231 11.6166C0.881659 11.5969 0.806805 11.5923 0.733357 11.6029C0.659909 11.6136 0.589442 11.6392 0.526355 11.6783C0.463269 11.7173 0.408936 11.769 0.366723 11.8301C0.324509 11.8911 0.295318 11.9602 0.281011 12.033C0.266704 12.1058 0.267586 12.1808 0.28357 12.2533C0.299553 12.3258 0.330297 12.3941 0.373908 12.4542C0.417519 12.5142 0.473044 12.5647 0.537016 12.6023C0.600988 12.6399 0.672035 12.6639 0.745708 12.6728L14.2706 15.3301L11.6094 28.875C11.5897 28.9466 11.5851 29.0214 11.5957 29.0949C11.6063 29.1683 11.632 29.2388 11.6711 29.3018C11.7102 29.3649 11.7618 29.4193 11.8229 29.4615C11.8839 29.5037 11.953 29.5329 12.0258 29.5472C12.0986 29.5615 12.1736 29.5606 12.2461 29.5446C12.3186 29.5287 12.3869 29.4979 12.447 29.4543C12.507 29.4107 12.5574 29.3552 12.595 29.2912C12.6327 29.2273 12.6567 29.1562 12.6656 29.0825L15.3229 15.5576L28.8678 18.2189C28.9373 18.2327 29.0088 18.2327 29.0784 18.2189C29.1479 18.2051 29.214 18.1778 29.2729 18.1384C29.3319 18.0991 29.3825 18.0485 29.4219 17.9896C29.4613 17.9307 29.4887 17.8646 29.5025 17.7951C29.5164 17.7256 29.5164 17.654 29.5026 17.5845C29.4888 17.515 29.4614 17.4489 29.4221 17.3899C29.3827 17.331 29.3322 17.2804 29.2732 17.241C29.2143 17.2016 29.1482 17.1742 29.0787 17.1603Z" fill="#3B29AB"/>
  </symbol>
</svg>