<svg width="46" height="42" viewBox="0 0 46 42" fill="none" xmlns="http://www.w3.org/2000/svg">
<path d="M41.1812 35.9757L27.5329 4.4466C27.29 3.88558 26.9037 3.39839 26.4128 3.03398C25.9219 2.66957 25.3437 2.44079 24.7364 2.37064C24.129 2.30049 23.5139 2.39143 22.9529 2.63433C22.3918 2.87722 21.9046 3.2635 21.5401 3.75437L1.06323 31.3417C0.697859 31.8333 0.468731 32.4127 0.398995 33.0213C0.329259 33.6298 0.421389 34.246 0.666074 34.8076C0.910759 35.3692 1.29933 35.8562 1.79253 36.2195C2.28572 36.5828 2.86607 36.8095 3.47493 36.8766L37.5886 40.8171C38.1956 40.8873 38.8104 40.7964 39.3711 40.5536C39.9319 40.3108 40.4188 39.9246 40.783 39.4339C41.1471 38.9432 41.3756 38.3652 41.4456 37.7582C41.5155 37.1511 41.4243 36.5364 41.1812 35.9757ZM37.7163 39.7366L3.59979 35.7957C3.18321 35.7481 2.78658 35.5914 2.44993 35.3414C2.11328 35.0915 1.84852 34.7571 1.6824 34.3721C1.51627 33.9872 1.45464 33.5652 1.50374 33.1488C1.55285 32.7324 1.71094 32.3363 1.96206 32.0005L22.4361 4.41287C22.6855 4.07702 23.0188 3.81273 23.4027 3.64654C23.7866 3.48036 24.2075 3.41814 24.623 3.46614C25.0386 3.51414 25.4342 3.67067 25.7701 3.92C26.106 4.16933 26.3703 4.50266 26.5366 4.88652L40.1878 36.416C40.3561 36.8011 40.4197 37.2238 40.3719 37.6414C40.3242 38.059 40.1669 38.4565 39.9159 38.7937C39.665 39.1308 39.3294 39.3956 38.9431 39.5612C38.5568 39.7268 38.1335 39.7873 37.7163 39.7366Z" fill="#3B29AB"/>
<path d="M21.85 25.1173L23.041 14.8067C23.0577 14.6623 23.1311 14.5303 23.2451 14.44C23.359 14.3496 23.5042 14.3082 23.6487 14.3249C23.7932 14.3416 23.9251 14.415 24.0155 14.529C24.1059 14.6429 24.1473 14.7881 24.1306 14.9326L22.9396 25.2432C22.9229 25.3877 22.8495 25.5196 22.7355 25.61C22.6216 25.7004 22.4764 25.7418 22.3319 25.7251C22.1874 25.7084 22.0554 25.635 21.9651 25.521C21.8747 25.407 21.8333 25.2618 21.85 25.1173Z" fill="#3B29AB"/>
<path d="M22.6924 30.7404C22.6638 30.9886 22.5377 31.2153 22.3418 31.3706C22.146 31.5258 21.8966 31.5969 21.6483 31.5683C21.4001 31.5396 21.1734 31.4135 21.0181 31.2177C20.8629 31.0218 20.7918 30.7724 20.8204 30.5241C20.8491 30.2759 20.9752 30.0492 21.171 29.894C21.3668 29.7387 21.6163 29.6676 21.8646 29.6963C22.1128 29.7249 22.3395 29.851 22.4947 30.0469C22.65 30.2427 22.7211 30.4921 22.6924 30.7404Z" fill="#3B29AB"/>
</svg>
