<svg width="30" height="30" viewBox="0 0 30 30" fill="none" xmlns="http://www.w3.org/2000/svg">
<path d="M29.0787 17.1603L15.5539 14.5031L18.2151 0.958128C18.2347 0.886557 18.2393 0.811706 18.2287 0.738258C18.2181 0.66481 18.1925 0.594339 18.1534 0.531253C18.1143 0.468166 18.0626 0.413812 18.0016 0.371598C17.9405 0.329384 17.8715 0.300219 17.7987 0.285912C17.7258 0.271605 17.6508 0.272466 17.5784 0.288449C17.5059 0.304433 17.4375 0.335194 17.3775 0.378805C17.3174 0.422416 17.267 0.477946 17.2294 0.541918C17.1918 0.605889 17.1678 0.676932 17.1588 0.750606L14.501 14.2783L0.953231 11.6166C0.881659 11.5969 0.806805 11.5923 0.733357 11.6029C0.659909 11.6136 0.589442 11.6392 0.526355 11.6783C0.463269 11.7173 0.408936 11.769 0.366723 11.8301C0.324509 11.8911 0.295318 11.9602 0.281011 12.033C0.266704 12.1058 0.267586 12.1808 0.28357 12.2533C0.299553 12.3258 0.330297 12.3941 0.373908 12.4542C0.417519 12.5142 0.473044 12.5647 0.537016 12.6023C0.600988 12.6399 0.672035 12.6639 0.745708 12.6728L14.2706 15.3301L11.6094 28.875C11.5897 28.9466 11.5851 29.0214 11.5957 29.0949C11.6063 29.1683 11.632 29.2388 11.6711 29.3018C11.7102 29.3649 11.7618 29.4193 11.8229 29.4615C11.8839 29.5037 11.953 29.5329 12.0258 29.5472C12.0986 29.5615 12.1736 29.5606 12.2461 29.5446C12.3186 29.5287 12.3869 29.4979 12.447 29.4543C12.507 29.4107 12.5574 29.3552 12.595 29.2912C12.6327 29.2273 12.6567 29.1562 12.6656 29.0825L15.3229 15.5576L28.8678 18.2189C28.9373 18.2327 29.0088 18.2327 29.0784 18.2189C29.1479 18.2051 29.214 18.1778 29.2729 18.1384C29.3319 18.0991 29.3825 18.0485 29.4219 17.9896C29.4613 17.9307 29.4887 17.8646 29.5025 17.7951C29.5164 17.7256 29.5164 17.654 29.5026 17.5845C29.4888 17.515 29.4614 17.4489 29.4221 17.3899C29.3827 17.331 29.3322 17.2804 29.2732 17.241C29.2143 17.2016 29.1482 17.1742 29.0787 17.1603Z" fill="#3B29AB"/>
</svg>
